# xmcd
#
# Track frame offsets:
#       182
#       11050
#       22530
#       34490
#       46427
#       59490
#       70107
#       84132
#       99340
#       117900
#       135752
#       147747
#       159650
#       170287
#
# Disc length: 2456 seconds
#
# Revision: 1
# Processed by: cddbd v1.4PL0 Copyright (c) Steve Scherf et al.
# Submitted via: WhereIsIt 3.55
#
DISCID=af09960e
DTITLE=Dizionario della canzone italiana - 21 Stranieri in Italia
DYEAR=1900
DGENRE=
TTITLE0=Paul Anka - Ogni volta
TTITLE1=Neil Sedaka - Il re dei pagliacci
TTITLE2=Gene Pitney - Quanto vedrai la mia ragazza
TTITLE3=Steven Brown - Mi sono inammorato di te
TTITLE4=Paul Anka - La verità
TTITLE5=Neil Sedaka - La terza luna
TTITLE6=Mal - Betty blu
TTITLE7=Kessler - Quelli belli come noi
TTITLE8=Alain Barriere - Vivrò
TTITLE9=Sandie Shaw - Quelli erano giorni
TTITLE10=Antonio Prieto - La novia
TTITLE11=Little peggy March - Passo su passo
TTITLE12=Los Hermanos rigual - Cuando calienta el sol
TTITLE13=Roberto Carlos - Canzone per te
EXTD=
EXTT0=
EXTT1=
EXTT2=
EXTT3=
EXTT4=
EXTT5=
EXTT6=
EXTT7=
EXTT8=
EXTT9=
EXTT10=
EXTT11=
EXTT12=
EXTT13=
PLAYORDER=
